<svg id="svg" version="1.1" xmlns="http://www.w3.org/2000/svg" xmlns:xlink="http://www.w3.org/1999/xlink" width="400" height="92.88702928870292" viewBox="0, 0, 400,92.88702928870292"><g id="svgg"><path id="path0" d="M54.044 10.022 C 53.871 10.195,53.620 10.253,52.782 10.312 C 52.616 10.324,52.527 10.408,52.583 10.500 C 52.646 10.601,52.418 10.667,52.010 10.667 C 51.638 10.667,51.333 10.726,51.333 10.799 C 51.333 10.937,49.662 11.500,49.252 11.500 C 49.122 11.500,48.957 11.602,48.883 11.728 C 48.810 11.853,48.506 12.003,48.208 12.061 C 47.910 12.119,47.442 12.213,47.167 12.269 C 46.892 12.325,46.667 12.475,46.667 12.602 C 46.667 12.765,46.443 12.833,45.907 12.833 C 45.443 12.833,45.187 12.898,45.250 13.000 C 45.310 13.097,45.139 13.167,44.838 13.167 C 44.534 13.167,44.284 13.269,44.227 13.417 C 44.168 13.570,43.916 13.667,43.575 13.667 C 43.270 13.667,42.973 13.742,42.917 13.833 C 42.860 13.925,42.556 14.000,42.240 14.000 C 41.841 14.000,41.667 14.076,41.667 14.250 C 41.667 14.424,41.492 14.500,41.093 14.500 C 40.778 14.500,40.473 14.575,40.417 14.667 C 40.360 14.758,40.056 14.833,39.740 14.833 C 39.341 14.833,39.167 14.910,39.167 15.083 C 39.167 15.264,38.981 15.333,38.500 15.333 C 38.133 15.333,37.833 15.408,37.833 15.500 C 37.833 15.592,37.571 15.667,37.250 15.667 C 36.843 15.667,36.667 15.742,36.667 15.917 C 36.667 16.098,36.480 16.167,35.990 16.167 C 35.582 16.167,35.354 16.233,35.417 16.333 C 35.479 16.434,35.252 16.500,34.843 16.500 C 34.353 16.500,34.167 16.569,34.167 16.750 C 34.167 16.931,33.980 17.000,33.490 17.000 C 33.082 17.000,32.854 17.066,32.917 17.167 C 32.979 17.267,32.752 17.333,32.343 17.333 C 31.853 17.333,31.667 17.402,31.667 17.583 C 31.667 17.730,31.512 17.836,31.292 17.839 C 31.085 17.842,30.774 17.952,30.600 18.083 C 30.427 18.215,30.209 18.276,30.116 18.219 C 30.018 18.158,30.000 18.199,30.074 18.319 C 30.154 18.447,30.078 18.554,29.868 18.609 C 29.686 18.657,29.401 18.947,29.236 19.254 C 29.071 19.562,28.875 19.776,28.801 19.730 C 28.727 19.684,28.667 19.839,28.667 20.073 C 28.667 20.308,28.573 20.501,28.458 20.503 C 28.316 20.504,28.328 20.554,28.494 20.659 C 28.706 20.793,28.701 20.891,28.455 21.407 C 28.220 21.899,28.213 22.000,28.410 22.000 C 28.939 22.000,29.146 23.226,29.336 27.500 C 29.584 33.093,29.822 37.000,30.000 38.402 C 30.092 39.126,30.168 40.401,30.170 41.235 C 30.177 44.750,30.807 46.409,32.135 46.409 C 32.841 46.409,37.440 43.281,38.154 42.314 C 38.907 41.296,39.221 42.011,38.821 43.833 C 38.648 44.619,38.479 46.244,38.178 50.000 C 38.079 51.237,37.923 52.939,37.832 53.782 C 37.741 54.624,37.665 56.012,37.662 56.865 C 37.660 57.719,37.587 59.148,37.500 60.042 C 37.248 62.629,37.247 68.445,37.498 68.747 C 37.884 69.212,38.769 69.064,39.221 68.458 C 39.735 67.772,41.112 65.553,41.834 64.250 C 42.562 62.935,42.873 62.381,43.669 60.975 C 44.035 60.331,44.333 59.783,44.333 59.759 C 44.333 59.735,44.719 59.047,45.190 58.232 C 45.661 57.417,46.211 56.450,46.412 56.083 C 46.614 55.717,47.217 54.629,47.753 53.667 C 48.289 52.704,48.937 51.521,49.194 51.037 C 49.451 50.553,49.860 49.803,50.104 49.370 C 51.383 47.094,52.333 45.305,52.333 45.171 C 52.333 45.088,52.778 44.307,53.321 43.436 C 53.864 42.565,54.704 41.079,55.187 40.135 C 55.670 39.190,56.476 37.704,56.978 36.833 C 59.014 33.307,59.394 32.068,58.696 31.233 C 58.087 30.504,57.840 30.469,54.953 30.689 C 51.845 30.926,51.190 30.923,50.941 30.675 C 50.538 30.271,53.370 23.160,54.272 22.313 C 54.489 22.109,54.667 21.842,54.667 21.721 C 54.667 21.599,54.742 21.500,54.833 21.500 C 54.925 21.500,55.000 21.284,55.000 21.020 C 55.000 20.757,55.112 20.447,55.250 20.333 C 55.387 20.219,55.500 20.022,55.500 19.894 C 55.500 19.766,55.570 19.532,55.655 19.373 C 55.739 19.214,55.853 18.971,55.906 18.833 C 55.960 18.696,56.147 18.358,56.323 18.083 C 56.499 17.808,56.648 17.447,56.654 17.280 C 56.661 17.113,56.779 16.864,56.917 16.726 C 57.054 16.589,57.167 16.332,57.167 16.155 C 57.167 15.978,57.242 15.833,57.333 15.833 C 57.425 15.833,57.500 15.608,57.500 15.333 C 57.500 15.018,57.585 14.833,57.731 14.833 C 58.352 14.833,58.501 11.110,57.903 10.556 C 57.681 10.350,57.500 10.104,57.500 10.008 C 57.500 9.763,54.291 9.776,54.044 10.022 " stroke="none" fill="#fac82f" fill-rule="evenodd"></path><path id="path1" d="M262.417 10.256 C 262.233 10.480,261.990 10.664,261.875 10.665 C 261.760 10.666,261.667 10.779,261.667 10.917 C 261.667 11.056,261.519 11.167,261.333 11.167 C 261.150 11.167,261.000 11.242,261.000 11.333 C 261.000 11.425,260.887 11.500,260.750 11.500 C 260.612 11.500,260.500 11.612,260.500 11.750 C 260.500 11.887,260.420 12.000,260.321 12.000 C 260.091 12.000,259.667 12.424,259.667 12.655 C 259.667 12.753,259.586 12.833,259.488 12.833 C 259.257 12.833,258.833 13.257,258.833 13.488 C 258.833 13.586,258.753 13.667,258.655 13.667 C 258.424 13.667,258.000 14.091,258.000 14.321 C 258.000 14.420,257.920 14.500,257.821 14.500 C 257.591 14.500,257.167 14.924,257.167 15.155 C 257.167 15.253,257.086 15.333,256.988 15.333 C 256.757 15.333,256.333 15.757,256.333 15.988 C 256.333 16.086,256.253 16.167,256.155 16.167 C 255.924 16.167,255.500 16.591,255.500 16.821 C 255.500 16.920,255.358 17.000,255.184 17.000 C 255.010 17.000,254.481 17.378,254.010 17.839 C 253.529 18.310,253.072 18.628,252.968 18.563 C 252.858 18.496,252.828 18.524,252.895 18.631 C 253.015 18.826,252.130 19.833,251.839 19.833 C 251.744 19.833,251.667 19.914,251.667 20.012 C 251.667 20.243,251.243 20.667,251.012 20.667 C 250.914 20.667,250.833 20.747,250.833 20.845 C 250.833 21.076,250.409 21.500,250.179 21.500 C 250.080 21.500,250.000 21.580,250.000 21.679 C 250.000 21.909,249.576 22.333,249.345 22.333 C 249.247 22.333,249.167 22.433,249.167 22.555 C 249.167 22.677,248.979 22.877,248.750 23.000 C 248.521 23.123,248.333 23.323,248.333 23.445 C 248.333 23.567,248.253 23.667,248.155 23.667 C 247.938 23.667,247.500 24.085,247.500 24.293 C 247.500 24.376,247.313 24.544,247.083 24.667 C 246.854 24.789,246.667 24.989,246.667 25.111 C 246.667 25.234,246.586 25.333,246.488 25.333 C 246.257 25.333,245.833 25.757,245.833 25.988 C 245.833 26.086,245.719 26.167,245.580 26.167 C 245.440 26.167,244.968 26.542,244.531 27.000 C 244.094 27.458,243.658 27.833,243.563 27.833 C 243.468 27.833,243.289 28.021,243.167 28.250 C 243.044 28.479,242.887 28.667,242.818 28.667 C 242.611 28.667,237.500 33.787,237.500 33.995 C 237.500 34.100,237.438 34.148,237.363 34.102 C 237.210 34.007,236.667 34.579,236.667 34.835 C 236.667 34.926,236.519 35.000,236.339 35.000 C 235.945 35.000,233.667 37.187,233.667 37.566 C 233.667 37.713,233.592 37.833,233.500 37.833 C 233.408 37.833,233.333 37.946,233.333 38.083 C 233.333 38.221,233.221 38.333,233.083 38.333 C 232.929 38.333,232.833 38.490,232.833 38.740 C 232.833 38.964,232.757 39.194,232.663 39.252 C 232.438 39.391,232.450 50.667,232.675 50.667 C 232.762 50.667,232.833 50.892,232.833 51.167 C 232.833 51.489,232.918 51.667,233.072 51.667 C 233.203 51.667,233.334 51.835,233.363 52.042 C 233.398 52.283,233.551 52.436,233.792 52.470 C 233.998 52.499,234.167 52.593,234.167 52.678 C 234.167 52.764,234.467 52.833,234.833 52.833 C 235.278 52.833,235.486 52.903,235.458 53.042 C 235.425 53.206,237.738 53.259,246.487 53.293 C 252.576 53.317,257.564 53.354,257.571 53.376 C 257.657 53.654,257.382 59.000,257.293 58.781 C 257.118 58.355,256.833 58.594,256.833 59.167 C 256.833 59.751,257.084 59.947,257.318 59.545 C 257.438 59.340,257.491 61.950,257.495 68.130 C 257.499 75.867,257.532 77.023,257.750 77.106 C 257.904 77.166,258.000 77.419,258.000 77.768 C 258.000 78.079,258.075 78.333,258.167 78.333 C 258.258 78.333,258.333 78.446,258.333 78.583 C 258.333 78.721,258.428 78.833,258.544 78.833 C 258.660 78.833,258.895 79.021,259.067 79.250 C 259.500 79.827,261.742 79.881,262.217 79.326 C 262.378 79.139,262.582 79.031,262.671 79.086 C 262.760 79.141,262.833 79.107,262.833 79.010 C 262.833 78.913,262.946 78.833,263.083 78.833 C 263.221 78.833,263.333 78.721,263.333 78.583 C 263.333 78.446,263.414 78.333,263.512 78.333 C 263.743 78.333,264.167 77.909,264.167 77.679 C 264.167 77.580,264.247 77.500,264.345 77.500 C 264.576 77.500,265.000 77.076,265.000 76.845 C 265.000 76.747,265.080 76.667,265.179 76.667 C 265.409 76.667,265.833 76.243,265.833 76.012 C 265.833 75.914,265.914 75.833,266.012 75.833 C 266.243 75.833,266.667 75.409,266.667 75.179 C 266.667 75.080,266.747 75.000,266.845 75.000 C 267.076 75.000,267.500 74.576,267.500 74.345 C 267.500 74.247,267.580 74.167,267.679 74.167 C 267.909 74.167,268.333 73.743,268.333 73.512 C 268.333 73.414,268.414 73.333,268.512 73.333 C 268.743 73.333,269.167 72.909,269.167 72.679 C 269.167 72.580,269.247 72.500,269.345 72.500 C 269.576 72.500,270.000 72.076,270.000 71.845 C 270.000 71.747,270.074 71.667,270.165 71.667 C 270.421 71.667,270.993 71.123,270.898 70.970 C 270.852 70.895,270.891 70.833,270.986 70.833 C 271.081 70.833,271.561 70.440,272.051 69.958 C 272.542 69.477,273.154 68.933,273.412 68.750 C 273.670 68.567,274.039 68.237,274.232 68.017 C 274.425 67.797,274.790 67.387,275.042 67.105 C 275.294 66.823,275.500 66.534,275.500 66.463 C 275.500 66.392,275.580 66.333,275.677 66.333 C 275.879 66.333,276.249 66.004,278.350 63.958 C 279.174 63.156,279.920 62.500,280.007 62.500 C 280.095 62.500,280.167 62.425,280.167 62.333 C 280.167 62.130,281.481 60.833,281.687 60.833 C 281.767 60.833,281.833 60.753,281.833 60.655 C 281.833 60.424,282.257 60.000,282.488 60.000 C 282.586 60.000,282.667 59.925,282.667 59.833 C 282.667 59.616,283.950 58.333,284.167 58.333 C 284.258 58.333,284.333 58.253,284.333 58.155 C 284.333 57.924,284.757 57.500,284.988 57.500 C 285.086 57.500,285.167 57.420,285.167 57.321 C 285.167 57.091,285.591 56.667,285.821 56.667 C 285.920 56.667,286.000 56.586,286.000 56.488 C 286.000 56.257,286.424 55.833,286.655 55.833 C 286.753 55.833,286.833 55.753,286.833 55.655 C 286.833 55.424,287.257 55.000,287.488 55.000 C 287.586 55.000,287.667 54.920,287.667 54.821 C 287.667 54.591,288.091 54.167,288.321 54.167 C 288.420 54.167,288.500 54.054,288.500 53.917 C 288.500 53.779,288.645 53.667,288.822 53.667 C 289.008 53.667,289.194 53.511,289.261 53.299 C 289.397 52.870,289.734 52.500,289.988 52.500 C 290.086 52.500,290.167 52.400,290.167 52.278 C 290.167 52.156,290.354 51.956,290.583 51.833 C 290.877 51.676,291.000 51.471,291.000 51.139 C 291.000 50.879,291.075 50.667,291.167 50.667 C 291.275 50.667,291.333 48.364,291.333 44.093 C 291.333 39.891,291.273 37.483,291.167 37.417 C 291.075 37.360,291.000 37.045,291.000 36.718 C 291.000 35.983,290.005 35.000,289.261 35.000 C 289.126 35.000,288.950 34.881,288.868 34.735 C 288.787 34.589,288.671 34.477,288.610 34.485 C 288.550 34.493,283.700 34.500,277.833 34.500 L 267.167 34.500 267.167 23.078 C 267.167 13.079,267.136 11.644,266.917 11.560 C 266.779 11.508,266.667 11.313,266.667 11.129 C 266.667 9.935,263.254 9.234,262.417 10.256 M29.221 26.417 C 29.222 27.058,29.252 27.300,29.288 26.955 C 29.324 26.609,29.324 26.084,29.287 25.788 C 29.250 25.492,29.221 25.775,29.221 26.417 M30.042 39.750 C 30.044 40.117,30.078 40.247,30.118 40.040 C 30.158 39.832,30.156 39.532,30.115 39.373 C 30.073 39.214,30.040 39.383,30.042 39.750 M38.042 50.083 C 38.044 50.450,38.078 50.580,38.118 50.373 C 38.158 50.166,38.156 49.866,38.115 49.706 C 38.073 49.547,38.040 49.717,38.042 50.083 M256.897 62.575 C 256.782 62.875,256.968 63.206,257.178 63.076 C 257.389 62.946,257.376 62.333,257.161 62.333 C 257.067 62.333,256.948 62.442,256.897 62.575 M37.224 65.250 C 37.224 65.983,37.254 66.263,37.289 65.871 C 37.324 65.479,37.324 64.879,37.288 64.537 C 37.252 64.196,37.223 64.517,37.224 65.250 M37.209 67.750 C 37.211 68.117,37.245 68.247,37.285 68.040 C 37.324 67.832,37.323 67.532,37.281 67.373 C 37.239 67.214,37.207 67.383,37.209 67.750 " stroke="none" fill="#1fc16b" fill-rule="evenodd"></path><path id="path2" d="M115.833 3.907 C 115.833 4.039,115.920 4.201,116.026 4.266 C 116.151 4.343,116.173 4.311,116.088 4.174 C 116.012 4.051,116.053 3.902,116.187 3.817 C 116.369 3.702,116.356 3.671,116.125 3.669 C 115.965 3.668,115.833 3.775,115.833 3.907 M305.905 7.335 C 305.905 7.520,305.976 7.647,306.063 7.618 C 306.299 7.539,306.335 7.000,306.104 7.000 C 305.995 7.000,305.905 7.151,305.905 7.335 M305.905 13.998 C 305.905 14.182,306.007 14.333,306.131 14.333 C 306.256 14.333,306.334 14.208,306.304 14.055 C 306.225 13.650,305.905 13.604,305.905 13.998 M359.206 17.074 C 359.001 17.310,358.833 17.652,358.833 17.835 C 358.833 18.019,358.722 18.167,358.583 18.167 C 358.446 18.167,358.333 18.279,358.333 18.417 C 358.333 18.554,358.258 18.667,358.167 18.667 C 358.075 18.667,358.000 18.854,358.000 19.083 C 358.000 19.343,357.906 19.500,357.750 19.500 C 357.594 19.500,357.500 19.657,357.500 19.917 C 357.500 20.146,357.425 20.333,357.333 20.333 C 357.242 20.333,357.167 20.521,357.167 20.750 C 357.167 20.979,357.086 21.167,356.988 21.167 C 356.700 21.167,356.333 21.616,356.333 21.970 C 356.333 22.150,356.221 22.341,356.083 22.394 C 355.946 22.446,355.833 22.642,355.833 22.828 C 355.833 23.014,355.758 23.167,355.667 23.167 C 355.575 23.167,355.500 23.354,355.500 23.583 C 355.500 23.843,355.406 24.000,355.250 24.000 C 355.113 24.000,355.000 24.113,355.000 24.250 C 355.000 24.387,354.925 24.500,354.833 24.500 C 354.742 24.500,354.667 24.697,354.667 24.937 C 354.667 25.312,354.630 25.344,354.410 25.161 C 354.016 24.834,353.746 25.193,354.028 25.669 C 354.203 25.965,354.206 26.059,354.042 26.119 C 353.927 26.160,353.833 26.293,353.833 26.413 C 353.833 26.533,353.721 26.674,353.583 26.727 C 353.446 26.780,353.333 26.938,353.333 27.078 C 353.333 27.218,353.258 27.333,353.167 27.333 C 353.075 27.333,353.000 27.513,353.000 27.732 C 353.000 27.952,352.887 28.174,352.750 28.227 C 352.613 28.280,352.500 28.475,352.500 28.661 C 352.500 28.848,352.425 29.000,352.333 29.000 C 352.242 29.000,352.167 29.146,352.167 29.325 C 352.167 29.504,352.073 29.710,351.958 29.783 C 351.685 29.958,351.333 30.595,351.333 30.914 C 351.333 31.053,351.221 31.167,351.083 31.167 C 350.946 31.167,350.833 31.312,350.833 31.490 C 350.833 31.668,350.758 31.860,350.667 31.917 C 350.575 31.973,350.500 32.203,350.500 32.427 C 350.500 32.677,350.404 32.833,350.250 32.833 C 350.113 32.833,350.000 32.946,350.000 33.083 C 350.000 33.221,349.933 33.333,349.851 33.333 C 349.770 33.333,349.656 33.521,349.598 33.750 C 349.541 33.979,349.420 34.167,349.330 34.167 C 349.240 34.167,349.167 34.346,349.167 34.566 C 349.167 34.785,349.054 35.008,348.917 35.060 C 348.779 35.113,348.667 35.281,348.667 35.434 C 348.667 35.586,348.527 35.832,348.357 35.980 C 348.187 36.129,347.994 36.419,347.929 36.625 C 347.864 36.831,347.741 37.000,347.655 37.000 C 347.570 37.000,347.500 37.154,347.500 37.341 C 347.500 37.529,347.313 37.856,347.083 38.069 C 346.854 38.281,346.667 38.624,346.667 38.831 C 346.667 39.127,346.619 39.168,346.443 39.022 C 346.178 38.802,346.000 38.938,346.000 39.361 C 346.000 39.529,345.922 39.667,345.826 39.667 C 345.717 39.667,345.693 39.886,345.761 40.250 C 345.839 40.664,345.810 40.833,345.662 40.833 C 345.396 40.833,345.012 41.334,345.005 41.691 C 345.002 41.841,344.887 42.008,344.750 42.060 C 344.613 42.113,344.500 42.309,344.500 42.495 C 344.500 42.681,344.434 42.833,344.353 42.833 C 344.272 42.833,344.156 42.965,344.096 43.125 C 343.889 43.673,343.588 44.167,343.460 44.167 C 343.391 44.167,343.333 44.354,343.333 44.583 C 343.333 44.843,343.239 45.000,343.083 45.000 C 342.928 45.000,342.833 45.157,342.833 45.417 C 342.833 45.646,342.758 45.833,342.667 45.833 C 342.575 45.833,342.500 45.946,342.500 46.083 C 342.500 46.221,342.439 46.333,342.365 46.333 C 342.291 46.333,342.092 46.652,341.922 47.042 C 341.753 47.431,341.513 47.810,341.390 47.883 C 341.267 47.957,341.167 48.163,341.167 48.342 C 341.167 48.520,341.092 48.667,341.000 48.667 C 340.908 48.667,340.833 48.854,340.833 49.083 C 340.833 49.343,340.739 49.500,340.583 49.500 C 340.446 49.500,340.333 49.612,340.333 49.750 C 340.333 49.887,340.258 50.000,340.167 50.000 C 340.075 50.000,340.000 50.188,340.000 50.417 C 340.000 50.676,339.906 50.833,339.750 50.833 C 339.594 50.833,339.500 50.991,339.500 51.250 C 339.500 51.479,339.425 51.667,339.333 51.667 C 339.242 51.667,339.167 51.854,339.167 52.083 C 339.167 52.343,339.072 52.500,338.917 52.500 C 338.779 52.500,338.667 52.612,338.667 52.750 C 338.667 52.887,338.592 53.000,338.500 53.000 C 338.408 53.000,338.333 53.152,338.333 53.339 C 338.333 53.525,338.221 53.720,338.083 53.773 C 337.946 53.826,337.833 54.011,337.833 54.184 C 337.833 54.358,337.758 54.500,337.667 54.500 C 337.575 54.500,337.500 54.652,337.500 54.839 C 337.500 55.025,337.387 55.220,337.250 55.273 C 337.112 55.326,337.000 55.473,337.000 55.601 C 337.000 55.729,336.925 55.833,336.833 55.833 C 336.742 55.833,336.667 56.021,336.667 56.250 C 336.667 56.509,336.572 56.667,336.417 56.667 C 336.261 56.667,336.167 56.824,336.167 57.083 C 336.167 57.313,336.092 57.500,336.000 57.500 C 335.908 57.500,335.833 57.688,335.833 57.917 C 335.833 58.176,335.739 58.333,335.583 58.333 C 335.446 58.333,335.333 58.446,335.333 58.583 C 335.333 58.721,335.258 58.833,335.167 58.833 C 335.075 58.833,335.000 59.021,335.000 59.250 C 335.000 59.509,334.906 59.667,334.750 59.667 C 334.594 59.667,334.500 59.824,334.500 60.083 C 334.500 60.313,334.425 60.500,334.333 60.500 C 334.242 60.500,334.167 60.688,334.167 60.917 C 334.167 61.146,334.086 61.333,333.988 61.333 C 333.694 61.333,333.333 61.786,333.333 62.155 C 333.333 62.351,333.225 62.500,333.083 62.500 C 332.928 62.500,332.833 62.657,332.833 62.917 C 332.833 63.146,332.758 63.333,332.667 63.333 C 332.575 63.333,332.500 63.486,332.500 63.672 C 332.500 63.858,332.387 64.054,332.250 64.106 C 332.112 64.159,332.000 64.307,332.000 64.434 C 332.000 64.562,331.925 64.667,331.833 64.667 C 331.742 64.667,331.667 64.854,331.667 65.083 C 331.667 65.343,331.572 65.500,331.417 65.500 C 331.261 65.500,331.167 65.657,331.167 65.917 C 331.167 66.146,331.092 66.333,331.000 66.333 C 330.908 66.333,330.833 66.521,330.833 66.750 C 330.833 66.983,330.737 67.167,330.614 67.167 C 330.494 67.167,330.293 67.429,330.167 67.750 C 330.041 68.071,329.839 68.333,329.719 68.333 C 329.597 68.333,329.500 68.517,329.500 68.750 C 329.500 68.979,329.433 69.167,329.351 69.167 C 329.270 69.167,329.156 69.354,329.098 69.583 C 329.041 69.813,328.920 70.000,328.830 70.000 C 328.740 70.000,328.667 70.112,328.667 70.250 C 328.667 70.387,328.600 70.500,328.518 70.500 C 328.436 70.500,328.322 70.687,328.265 70.917 C 328.207 71.146,328.087 71.333,327.997 71.333 C 327.907 71.333,327.833 71.596,327.833 71.917 L 327.833 72.500 359.583 72.500 L 391.333 72.500 391.333 71.917 C 391.333 71.596,391.258 71.333,391.167 71.333 C 391.075 71.333,391.000 71.229,391.000 71.101 C 391.000 70.973,390.887 70.826,390.750 70.773 C 390.613 70.720,390.500 70.525,390.500 70.339 C 390.500 70.152,390.425 70.000,390.333 70.000 C 390.242 70.000,390.167 69.848,390.167 69.661 C 390.167 69.475,390.054 69.280,389.917 69.227 C 389.779 69.174,389.667 68.989,389.667 68.816 C 389.667 68.642,389.592 68.500,389.500 68.500 C 389.408 68.500,389.333 68.387,389.333 68.250 C 389.333 68.112,389.221 68.000,389.083 68.000 C 388.928 68.000,388.833 67.843,388.833 67.583 C 388.833 67.354,388.758 67.167,388.667 67.167 C 388.575 67.167,388.500 66.979,388.500 66.750 C 388.500 66.491,388.406 66.333,388.250 66.333 C 388.094 66.333,388.000 66.176,388.000 65.917 C 388.000 65.688,387.925 65.500,387.833 65.500 C 387.742 65.500,387.667 65.387,387.667 65.250 C 387.667 65.112,387.554 65.000,387.417 65.000 C 387.261 65.000,387.167 64.843,387.167 64.583 C 387.167 64.354,387.092 64.167,387.000 64.167 C 386.908 64.167,386.833 63.979,386.833 63.750 C 386.833 63.491,386.739 63.333,386.583 63.333 C 386.446 63.333,386.333 63.219,386.333 63.080 C 386.333 62.797,385.529 61.448,385.308 61.361 C 385.230 61.331,385.167 61.124,385.167 60.903 C 385.167 60.656,385.070 60.500,384.917 60.500 C 384.761 60.500,384.667 60.343,384.667 60.083 C 384.667 59.854,384.592 59.667,384.500 59.667 C 384.408 59.667,384.333 59.554,384.333 59.417 C 384.333 59.279,384.221 59.167,384.083 59.167 C 383.928 59.167,383.833 59.009,383.833 58.750 C 383.833 58.521,383.758 58.333,383.667 58.333 C 383.575 58.333,383.500 58.146,383.500 57.917 C 383.500 57.657,383.406 57.500,383.250 57.500 C 383.113 57.500,383.000 57.361,383.000 57.191 C 383.000 57.021,382.813 56.680,382.583 56.432 C 382.354 56.185,382.167 55.837,382.167 55.658 C 382.167 55.479,382.092 55.333,382.000 55.333 C 381.908 55.333,381.833 55.183,381.833 55.000 C 381.833 54.815,381.722 54.667,381.583 54.667 C 381.446 54.667,381.333 54.554,381.333 54.417 C 381.333 54.279,381.258 54.167,381.167 54.167 C 381.075 54.167,381.000 53.979,381.000 53.750 C 381.000 53.491,380.906 53.333,380.750 53.333 C 380.594 53.333,380.500 53.176,380.500 52.917 C 380.500 52.688,380.425 52.500,380.333 52.500 C 380.242 52.500,380.167 52.354,380.167 52.175 C 380.167 51.996,380.073 51.790,379.958 51.717 C 379.685 51.542,379.333 50.905,379.333 50.586 C 379.333 50.447,379.221 50.333,379.083 50.333 C 378.928 50.333,378.833 50.176,378.833 49.917 C 378.833 49.688,378.758 49.500,378.667 49.500 C 378.575 49.500,378.500 49.397,378.500 49.270 C 378.500 49.144,378.387 48.947,378.250 48.833 C 378.113 48.719,378.000 48.485,378.000 48.313 C 378.000 48.141,377.925 48.000,377.833 48.000 C 377.742 48.000,377.667 47.887,377.667 47.750 C 377.667 47.612,377.554 47.500,377.417 47.500 C 377.261 47.500,377.167 47.343,377.167 47.083 C 377.167 46.854,377.100 46.667,377.018 46.667 C 376.936 46.667,376.822 46.479,376.765 46.250 C 376.707 46.021,376.587 45.833,376.497 45.833 C 376.407 45.833,376.333 45.721,376.333 45.583 C 376.333 45.446,376.258 45.333,376.167 45.333 C 376.075 45.333,376.000 45.181,376.000 44.995 C 376.000 44.809,375.887 44.613,375.750 44.560 C 375.613 44.508,375.500 44.285,375.500 44.066 C 375.500 43.846,375.442 43.667,375.371 43.667 C 375.300 43.667,375.101 43.404,374.928 43.083 C 374.756 42.763,374.551 42.500,374.474 42.500 C 374.397 42.500,374.333 42.313,374.333 42.083 C 374.333 41.824,374.239 41.667,374.083 41.667 C 373.928 41.667,373.833 41.509,373.833 41.250 C 373.833 41.021,373.766 40.833,373.685 40.833 C 373.603 40.833,373.489 40.646,373.432 40.417 C 373.374 40.188,373.253 40.000,373.163 40.000 C 373.074 40.000,373.000 39.887,373.000 39.750 C 373.000 39.612,372.925 39.500,372.833 39.500 C 372.742 39.500,372.667 39.348,372.667 39.161 C 372.667 38.975,372.554 38.780,372.417 38.727 C 372.279 38.674,372.167 38.484,372.167 38.304 C 372.167 37.950,371.800 37.500,371.512 37.500 C 371.414 37.500,371.333 37.356,371.333 37.180 C 371.333 36.819,370.816 35.836,370.625 35.834 C 370.556 35.834,370.500 35.646,370.500 35.417 C 370.500 35.157,370.406 35.000,370.250 35.000 C 370.113 35.000,370.000 34.887,370.000 34.750 C 370.000 34.612,369.925 34.500,369.833 34.500 C 369.742 34.500,369.667 34.313,369.667 34.083 C 369.667 33.824,369.572 33.667,369.417 33.667 C 369.261 33.667,369.167 33.509,369.167 33.250 C 369.167 33.021,369.092 32.833,369.000 32.833 C 368.908 32.833,368.833 32.646,368.833 32.417 C 368.833 32.157,368.739 32.000,368.583 32.000 C 368.446 32.000,368.333 31.887,368.333 31.750 C 368.333 31.613,368.258 31.500,368.167 31.500 C 368.075 31.500,368.000 31.313,368.000 31.083 C 368.000 30.824,367.906 30.667,367.750 30.667 C 367.594 30.667,367.500 30.509,367.500 30.250 C 367.500 30.021,367.425 29.833,367.333 29.833 C 367.242 29.833,367.167 29.681,367.167 29.495 C 367.167 29.309,367.054 29.113,366.917 29.060 C 366.779 29.008,366.667 28.822,366.667 28.649 C 366.667 28.475,366.592 28.333,366.500 28.333 C 366.408 28.333,366.333 28.221,366.333 28.083 C 366.333 27.946,366.221 27.833,366.083 27.833 C 365.928 27.833,365.833 27.676,365.833 27.417 C 365.833 27.188,365.758 27.000,365.667 27.000 C 365.575 27.000,365.500 26.848,365.500 26.661 C 365.500 26.475,365.387 26.280,365.250 26.227 C 365.113 26.174,365.000 26.027,365.000 25.899 C 365.000 25.771,364.925 25.667,364.833 25.667 C 364.742 25.667,364.667 25.479,364.667 25.250 C 364.667 24.991,364.572 24.833,364.417 24.833 C 364.279 24.833,364.164 24.702,364.161 24.542 C 364.155 24.181,363.779 23.667,363.523 23.667 C 363.419 23.667,363.333 23.479,363.333 23.250 C 363.333 23.021,363.258 22.833,363.167 22.833 C 363.075 22.833,363.000 22.646,363.000 22.417 C 363.000 22.157,362.906 22.000,362.750 22.000 C 362.594 22.000,362.500 21.843,362.500 21.583 C 362.500 21.354,362.425 21.167,362.333 21.167 C 362.242 21.167,362.167 21.062,362.167 20.934 C 362.167 20.807,362.054 20.659,361.917 20.606 C 361.779 20.554,361.667 20.358,361.667 20.172 C 361.667 19.986,361.592 19.833,361.500 19.833 C 361.408 19.833,361.333 19.646,361.333 19.417 C 361.333 19.157,361.239 19.000,361.083 19.000 C 360.929 19.000,360.833 18.844,360.833 18.593 C 360.833 18.369,360.758 18.140,360.667 18.083 C 360.575 18.027,360.500 17.835,360.500 17.657 C 360.500 17.479,360.418 17.333,360.318 17.333 C 360.218 17.333,360.011 17.178,359.858 16.989 L 359.579 16.645 359.206 17.074 M291.407 42.750 C 291.407 45.317,291.430 46.343,291.458 45.032 C 291.486 43.720,291.486 41.620,291.458 40.365 C 291.430 39.110,291.407 40.183,291.407 42.750 M386.167 59.167 C 386.167 59.381,386.251 59.500,386.375 59.458 C 386.490 59.420,386.583 59.289,386.583 59.167 C 386.583 59.044,386.490 58.913,386.375 58.875 C 386.251 58.834,386.167 58.952,386.167 59.167 M305.987 67.181 C 305.980 67.219,305.949 67.381,305.919 67.542 C 305.888 67.702,305.962 67.833,306.083 67.833 C 306.205 67.833,306.288 67.723,306.268 67.588 C 306.234 67.354,306.014 67.035,305.987 67.181 M305.987 73.847 C 305.980 73.885,305.951 74.035,305.923 74.181 C 305.894 74.326,305.967 74.444,306.083 74.444 C 306.200 74.444,306.281 74.347,306.264 74.227 C 306.232 74.014,306.012 73.711,305.987 73.847 M305.733 77.528 C 305.686 77.604,305.670 77.672,305.698 77.679 C 306.122 77.784,306.278 77.761,306.278 77.592 C 306.278 77.363,305.865 77.314,305.733 77.528 M305.733 80.861 C 305.686 80.938,305.670 81.006,305.698 81.013 C 306.122 81.118,306.278 81.094,306.278 80.926 C 306.278 80.696,305.865 80.648,305.733 80.861 M386.273 92.449 C 386.086 92.637,386.159 92.833,386.417 92.833 C 386.554 92.833,386.667 92.763,386.667 92.677 C 386.667 92.466,386.406 92.316,386.273 92.449 " stroke="none" fill="#040404" fill-rule="evenodd"></path><path id="path3" d="M143.925 18.013 C 143.978 18.100,143.612 18.167,143.088 18.167 C 142.413 18.167,142.130 18.236,142.060 18.417 C 141.993 18.592,141.720 18.667,141.149 18.667 C 140.700 18.667,140.333 18.742,140.333 18.833 C 140.333 18.925,140.071 19.000,139.750 19.000 C 139.391 19.000,139.167 19.081,139.167 19.211 C 139.167 19.327,138.781 19.513,138.307 19.625 C 137.834 19.738,137.322 19.943,137.169 20.081 C 137.016 20.220,136.728 20.333,136.529 20.333 C 136.330 20.333,136.167 20.408,136.167 20.500 C 136.167 20.592,136.054 20.667,135.917 20.667 C 135.779 20.667,135.514 20.819,135.327 21.006 C 135.141 21.193,134.916 21.301,134.827 21.246 C 134.739 21.192,134.667 21.226,134.667 21.323 C 134.667 21.421,134.554 21.500,134.417 21.500 C 134.279 21.500,134.167 21.613,134.167 21.750 C 134.167 21.887,134.023 22.000,133.848 22.000 C 133.672 22.000,133.258 22.262,132.928 22.583 C 132.598 22.904,132.216 23.167,132.080 23.167 C 131.944 23.167,131.833 23.279,131.833 23.417 C 131.833 23.554,131.696 23.667,131.528 23.667 C 131.360 23.667,131.123 23.854,131.000 24.083 C 130.877 24.313,130.709 24.500,130.627 24.500 C 130.419 24.500,130.000 24.938,130.000 25.155 C 130.000 25.253,129.920 25.333,129.821 25.333 C 129.593 25.333,129.263 25.667,129.121 26.042 C 129.060 26.202,128.933 26.333,128.839 26.333 C 128.744 26.333,128.667 26.483,128.667 26.667 C 128.667 26.857,128.556 27.000,128.407 27.000 C 128.264 27.000,128.193 27.075,128.250 27.167 C 128.307 27.258,128.236 27.333,128.093 27.333 C 127.950 27.333,127.833 27.434,127.833 27.558 C 127.833 27.681,127.685 27.916,127.504 28.080 C 127.323 28.244,127.215 28.443,127.264 28.522 C 127.313 28.602,127.274 28.667,127.177 28.667 C 127.079 28.667,127.000 28.779,127.000 28.917 C 127.000 29.054,126.916 29.148,126.814 29.125 C 126.711 29.102,126.603 29.232,126.573 29.414 C 126.543 29.595,126.439 29.770,126.342 29.803 C 126.246 29.835,126.167 29.967,126.167 30.097 C 126.167 30.227,126.093 30.333,126.003 30.333 C 125.913 30.333,125.793 30.521,125.735 30.750 C 125.678 30.979,125.564 31.167,125.482 31.167 C 125.400 31.167,125.333 31.346,125.333 31.566 C 125.333 31.785,125.237 32.001,125.120 32.046 C 125.003 32.091,124.888 32.375,124.865 32.678 C 124.842 32.980,124.761 33.308,124.685 33.406 C 124.541 33.590,124.546 34.601,124.691 34.747 C 124.833 34.888,125.664 34.429,125.665 34.208 C 125.666 34.094,125.854 34.000,126.083 34.000 C 126.313 34.000,126.500 33.925,126.500 33.833 C 126.500 33.742,126.612 33.667,126.750 33.667 C 126.888 33.667,127.000 33.554,127.000 33.417 C 127.000 33.275,127.149 33.167,127.345 33.167 C 127.714 33.167,128.167 32.806,128.167 32.512 C 128.167 32.414,128.354 32.333,128.583 32.333 C 128.813 32.333,129.000 32.258,129.000 32.167 C 129.000 32.075,129.188 32.000,129.417 32.000 C 129.676 32.000,129.833 31.906,129.833 31.750 C 129.833 31.594,129.991 31.500,130.250 31.500 C 130.479 31.500,130.667 31.425,130.667 31.333 C 130.667 31.242,131.042 31.167,131.500 31.167 C 132.130 31.167,132.333 31.106,132.333 30.917 C 132.333 30.705,132.742 30.667,135.012 30.667 C 137.171 30.667,137.739 30.715,137.940 30.917 C 138.078 31.054,138.485 31.167,138.845 31.167 C 139.205 31.167,139.500 31.242,139.500 31.333 C 139.500 31.425,139.690 31.500,139.922 31.500 C 140.154 31.500,140.387 31.613,140.440 31.750 C 140.492 31.887,140.678 32.000,140.851 32.000 C 141.025 32.000,141.167 32.075,141.167 32.167 C 141.167 32.258,141.354 32.333,141.583 32.333 C 141.843 32.333,142.000 32.428,142.000 32.583 C 142.000 32.721,142.112 32.833,142.250 32.833 C 142.387 32.833,142.500 32.908,142.500 33.000 C 142.500 33.092,142.688 33.167,142.917 33.167 C 143.176 33.167,143.333 33.261,143.333 33.417 C 143.333 33.554,143.406 33.667,143.494 33.667 C 143.583 33.667,143.887 33.893,144.171 34.171 C 144.454 34.448,144.768 34.624,144.869 34.561 C 144.971 34.498,145.005 34.525,144.944 34.622 C 144.885 34.717,144.994 34.836,145.185 34.887 C 145.377 34.937,145.484 35.058,145.424 35.155 C 145.363 35.253,145.431 35.333,145.573 35.333 C 145.716 35.333,145.833 35.403,145.833 35.489 C 145.833 35.574,145.984 35.692,146.169 35.751 C 146.354 35.809,146.461 35.929,146.407 36.016 C 146.353 36.103,146.370 36.164,146.446 36.151 C 146.791 36.091,146.960 36.197,147.136 36.583 C 147.250 36.833,147.465 37.000,147.673 37.000 C 147.864 37.000,147.982 37.062,147.935 37.137 C 147.840 37.290,148.412 37.833,148.669 37.833 C 148.759 37.833,148.833 37.950,148.833 38.093 C 148.833 38.236,148.908 38.307,149.000 38.250 C 149.092 38.193,149.167 38.255,149.167 38.387 C 149.167 38.520,149.298 38.672,149.458 38.726 C 149.859 38.860,150.359 39.193,150.684 39.542 C 150.833 39.702,151.033 39.833,151.127 39.833 C 151.221 39.833,151.341 39.946,151.394 40.083 C 151.446 40.221,151.642 40.333,151.828 40.333 C 152.014 40.333,152.168 40.427,152.169 40.542 C 152.170 40.656,152.649 40.975,153.234 41.250 C 153.819 41.525,154.263 41.806,154.222 41.875 C 154.181 41.944,154.331 42.000,154.556 42.000 C 154.780 42.000,155.008 42.112,155.060 42.250 C 155.113 42.388,155.309 42.500,155.495 42.500 C 155.681 42.500,155.833 42.575,155.833 42.667 C 155.833 42.758,156.026 42.833,156.262 42.833 C 156.498 42.833,156.803 42.946,156.940 43.083 C 157.078 43.221,157.373 43.333,157.595 43.333 C 157.818 43.333,158.000 43.394,158.000 43.469 C 158.000 43.543,158.347 43.622,158.771 43.644 C 159.195 43.666,159.650 43.793,159.783 43.925 C 159.943 44.085,160.381 44.167,161.085 44.167 C 161.669 44.167,162.195 44.244,162.253 44.339 C 162.321 44.448,163.452 44.504,165.348 44.492 C 167.120 44.481,168.298 44.411,168.242 44.320 C 168.188 44.232,168.645 44.167,169.312 44.167 C 170.125 44.167,170.552 44.091,170.726 43.917 C 170.864 43.779,171.244 43.667,171.571 43.667 C 171.899 43.667,172.167 43.592,172.167 43.500 C 172.167 43.408,172.415 43.333,172.718 43.333 C 173.021 43.333,173.415 43.223,173.593 43.089 C 173.771 42.954,174.053 42.842,174.220 42.839 C 174.387 42.836,174.637 42.720,174.775 42.582 C 174.914 42.443,175.088 42.368,175.163 42.414 C 175.237 42.460,175.341 42.386,175.394 42.249 C 175.447 42.112,175.605 42.000,175.747 42.000 C 176.042 42.000,176.691 41.663,176.872 41.417 C 176.940 41.325,176.996 41.309,176.997 41.381 C 176.999 41.454,177.164 41.360,177.365 41.173 C 177.565 40.986,177.810 40.833,177.908 40.833 C 178.006 40.833,178.289 40.646,178.536 40.417 C 178.783 40.187,179.064 40.000,179.159 40.000 C 179.255 40.000,179.333 39.887,179.333 39.750 C 179.333 39.612,179.478 39.500,179.655 39.500 C 179.831 39.500,180.123 39.313,180.304 39.083 C 180.484 38.854,180.682 38.667,180.744 38.667 C 180.922 38.667,181.333 38.209,181.333 38.012 C 181.333 37.914,181.446 37.833,181.583 37.833 C 181.721 37.833,181.833 37.716,181.833 37.573 C 181.833 37.431,181.908 37.360,182.000 37.417 C 182.092 37.473,182.167 37.403,182.167 37.260 C 182.167 37.117,182.279 37.000,182.417 37.000 C 182.554 37.000,182.667 36.920,182.667 36.821 C 182.667 36.591,183.091 36.167,183.321 36.167 C 183.420 36.167,183.500 35.979,183.500 35.750 C 183.500 35.521,183.575 35.333,183.667 35.333 C 183.758 35.333,183.833 35.221,183.833 35.083 C 183.833 34.946,183.914 34.833,184.012 34.833 C 184.300 34.833,184.667 34.384,184.667 34.030 C 184.667 33.850,184.779 33.659,184.917 33.606 C 185.054 33.554,185.167 33.391,185.167 33.245 C 185.167 33.100,185.244 33.028,185.337 33.086 C 185.431 33.144,185.498 33.130,185.484 33.054 C 185.414 32.647,185.529 32.333,185.750 32.333 C 185.925 32.333,186.000 32.157,186.000 31.750 C 186.000 31.429,186.057 31.167,186.126 31.167 C 186.386 31.167,186.831 29.826,186.864 28.945 C 186.877 28.616,186.950 28.386,187.027 28.433 C 187.104 28.481,187.167 28.398,187.167 28.250 C 187.167 28.102,187.093 28.026,187.002 28.082 C 186.907 28.141,186.879 28.074,186.936 27.925 C 187.002 27.755,186.940 27.667,186.758 27.667 C 186.605 27.667,186.523 27.598,186.574 27.515 C 186.626 27.431,186.541 27.381,186.385 27.404 C 186.229 27.427,186.072 27.533,186.037 27.640 C 186.001 27.746,185.866 27.833,185.736 27.833 C 185.606 27.833,185.500 27.950,185.500 28.093 C 185.500 28.236,185.425 28.307,185.333 28.250 C 185.242 28.193,185.167 28.264,185.167 28.407 C 185.167 28.550,185.050 28.667,184.907 28.667 C 184.759 28.667,184.696 28.746,184.761 28.851 C 184.838 28.975,184.759 28.999,184.521 28.923 C 184.259 28.840,184.167 28.881,184.167 29.082 C 184.167 29.250,184.245 29.308,184.375 29.235 C 184.490 29.171,184.418 29.279,184.215 29.475 C 184.013 29.672,183.769 29.833,183.674 29.833 C 183.578 29.833,183.500 29.946,183.500 30.083 C 183.500 30.224,183.351 30.333,183.159 30.333 C 182.971 30.333,182.648 30.516,182.440 30.740 C 182.233 30.964,181.865 31.173,181.621 31.206 C 181.378 31.239,181.126 31.318,181.062 31.383 C 180.997 31.447,180.786 31.500,180.593 31.500 C 180.399 31.500,180.086 31.608,179.898 31.740 C 179.709 31.873,179.130 31.998,178.611 32.019 C 178.091 32.040,177.667 32.118,177.667 32.192 C 177.667 32.266,177.489 32.245,177.271 32.146 C 176.986 32.016,176.779 32.017,176.531 32.150 C 176.304 32.271,176.152 32.277,176.084 32.167 C 176.027 32.075,175.625 32.000,175.190 32.000 C 174.756 32.000,174.315 31.915,174.211 31.811 C 174.107 31.707,173.848 31.604,173.636 31.582 C 173.424 31.560,173.152 31.533,173.032 31.521 C 172.912 31.510,172.850 31.441,172.895 31.368 C 172.940 31.295,172.820 31.224,172.628 31.210 C 172.437 31.195,172.218 31.086,172.143 30.967 C 172.067 30.848,172.004 30.811,172.003 30.886 C 172.001 30.961,171.782 30.868,171.516 30.678 C 171.250 30.488,170.912 30.333,170.766 30.333 C 170.620 30.333,170.500 30.221,170.500 30.083 C 170.500 29.946,170.387 29.833,170.250 29.833 C 170.112 29.833,170.000 29.758,170.000 29.667 C 170.000 29.575,169.883 29.500,169.740 29.500 C 169.597 29.500,169.522 29.433,169.572 29.351 C 169.623 29.269,169.477 29.155,169.249 29.098 C 169.020 29.041,168.833 28.920,168.833 28.830 C 168.833 28.740,168.721 28.667,168.583 28.667 C 168.446 28.667,168.333 28.586,168.333 28.488 C 168.333 28.257,167.909 27.833,167.679 27.833 C 167.580 27.833,167.500 27.753,167.500 27.655 C 167.500 27.424,167.076 27.000,166.845 27.000 C 166.747 27.000,166.667 26.920,166.667 26.821 C 166.667 26.609,166.250 26.167,166.049 26.167 C 165.971 26.167,165.776 26.013,165.616 25.826 C 165.456 25.639,165.240 25.538,165.136 25.602 C 165.022 25.673,164.995 25.643,165.067 25.526 C 165.138 25.412,165.080 25.333,164.927 25.333 C 164.784 25.333,164.667 25.221,164.667 25.083 C 164.667 24.946,164.587 24.833,164.489 24.833 C 164.391 24.833,164.072 24.588,163.780 24.288 C 163.127 23.618,162.084 22.833,161.844 22.833 C 161.747 22.833,161.667 22.748,161.667 22.643 C 161.667 22.387,161.152 22.012,160.792 22.005 C 160.631 22.002,160.500 21.887,160.500 21.750 C 160.500 21.594,160.343 21.500,160.083 21.500 C 159.854 21.500,159.667 21.425,159.667 21.333 C 159.667 21.242,159.562 21.167,159.434 21.167 C 159.307 21.167,159.159 21.054,159.106 20.917 C 159.054 20.779,158.858 20.667,158.672 20.667 C 158.486 20.667,158.333 20.592,158.333 20.500 C 158.333 20.408,158.146 20.333,157.917 20.333 C 157.688 20.333,157.500 20.237,157.500 20.119 C 157.500 19.996,157.268 19.887,156.958 19.863 C 156.660 19.841,156.392 19.750,156.361 19.661 C 156.331 19.573,156.084 19.500,155.814 19.500 C 155.531 19.500,155.282 19.394,155.227 19.250 C 155.167 19.095,154.913 19.000,154.556 19.000 C 154.215 19.000,154.022 18.932,154.083 18.833 C 154.147 18.731,153.869 18.667,153.361 18.667 C 152.830 18.667,152.505 18.588,152.451 18.446 C 152.397 18.304,152.018 18.211,151.396 18.186 C 150.863 18.164,150.338 18.073,150.231 17.984 C 149.977 17.773,143.795 17.803,143.925 18.013 M23.000 20.833 C 23.183 21.017,23.382 21.167,23.442 21.167 C 23.503 21.167,23.416 21.017,23.250 20.833 C 23.084 20.650,22.885 20.500,22.808 20.500 C 22.730 20.500,22.817 20.650,23.000 20.833 M122.114 40.576 C 121.931 40.759,121.518 40.833,120.679 40.833 C 120.004 40.833,119.500 40.905,119.500 41.000 C 119.500 41.092,119.177 41.167,118.782 41.167 C 118.387 41.167,117.918 41.277,117.740 41.411 C 117.562 41.546,117.252 41.658,117.052 41.661 C 116.851 41.664,116.640 41.742,116.583 41.833 C 116.527 41.925,116.257 42.000,115.985 42.000 C 115.698 42.000,115.449 42.105,115.394 42.250 C 115.341 42.387,115.118 42.500,114.899 42.500 C 114.679 42.500,114.500 42.575,114.500 42.667 C 114.500 42.758,114.313 42.833,114.083 42.833 C 113.824 42.833,113.667 42.928,113.667 43.083 C 113.667 43.237,113.511 43.333,113.264 43.333 C 113.042 43.333,112.835 43.412,112.803 43.507 C 112.771 43.603,112.577 43.694,112.373 43.710 C 112.168 43.725,112.000 43.834,112.000 43.952 C 112.000 44.070,111.888 44.167,111.750 44.167 C 111.612 44.167,111.500 44.242,111.500 44.333 C 111.500 44.425,111.391 44.500,111.258 44.500 C 111.124 44.500,110.828 44.688,110.598 44.917 C 110.369 45.146,110.103 45.333,110.008 45.333 C 109.912 45.333,109.833 45.446,109.833 45.583 C 109.833 45.721,109.721 45.833,109.583 45.833 C 109.446 45.833,109.040 46.127,108.681 46.486 C 108.322 46.845,107.984 47.095,107.931 47.042 C 107.877 46.988,107.833 47.069,107.833 47.222 C 107.833 47.375,107.738 47.500,107.621 47.500 C 107.505 47.500,107.268 47.762,107.095 48.083 C 106.922 48.404,106.718 48.667,106.640 48.667 C 106.563 48.667,106.500 48.779,106.500 48.917 C 106.500 49.054,106.388 49.167,106.250 49.167 C 106.112 49.167,106.000 49.284,106.000 49.427 C 106.000 49.569,105.925 49.640,105.833 49.583 C 105.742 49.527,105.667 49.639,105.667 49.833 C 105.667 50.027,105.597 50.143,105.512 50.091 C 105.427 50.038,105.305 50.160,105.241 50.360 C 105.178 50.561,104.947 50.918,104.729 51.153 C 104.512 51.388,104.333 51.674,104.333 51.790 C 104.333 51.905,104.258 52.000,104.167 52.000 C 104.075 52.000,104.000 52.112,104.000 52.250 C 104.000 52.387,103.906 52.501,103.792 52.503 C 103.653 52.504,103.667 52.559,103.833 52.667 C 104.047 52.805,104.041 52.829,103.792 52.831 C 103.631 52.832,103.500 52.946,103.500 53.083 C 103.500 53.221,103.425 53.333,103.333 53.333 C 103.242 53.333,103.167 53.521,103.167 53.750 C 103.167 53.979,103.098 54.167,103.015 54.167 C 102.931 54.167,102.812 54.467,102.750 54.833 C 102.688 55.200,102.564 55.500,102.475 55.500 C 102.385 55.500,102.336 55.744,102.364 56.042 C 102.437 56.795,103.443 56.925,104.059 56.260 C 104.277 56.025,104.540 55.833,104.644 55.833 C 104.748 55.833,104.833 55.721,104.833 55.583 C 104.833 55.428,104.991 55.333,105.250 55.333 C 105.479 55.333,105.667 55.264,105.667 55.178 C 105.667 55.093,105.835 54.997,106.042 54.966 C 106.248 54.934,106.398 54.817,106.375 54.704 C 106.351 54.587,106.507 54.500,106.740 54.500 C 106.964 54.500,107.193 54.425,107.250 54.333 C 107.307 54.242,107.501 54.167,107.682 54.167 C 107.863 54.167,108.054 54.054,108.106 53.917 C 108.166 53.762,108.419 53.667,108.768 53.667 C 109.079 53.667,109.333 53.592,109.333 53.500 C 109.333 53.395,110.531 53.333,112.593 53.333 C 114.724 53.333,115.817 53.391,115.750 53.500 C 115.688 53.600,115.909 53.667,116.306 53.667 C 116.737 53.667,116.997 53.753,117.060 53.917 C 117.113 54.054,117.304 54.167,117.485 54.167 C 117.666 54.167,117.860 54.242,117.917 54.333 C 117.973 54.425,118.165 54.500,118.343 54.500 C 118.521 54.500,118.667 54.612,118.667 54.750 C 118.667 54.906,118.824 55.000,119.083 55.000 C 119.313 55.000,119.500 55.075,119.500 55.167 C 119.500 55.258,119.688 55.333,119.917 55.333 C 120.152 55.333,120.333 55.430,120.333 55.555 C 120.333 55.677,120.521 55.877,120.750 56.000 C 120.979 56.123,121.167 56.307,121.167 56.409 C 121.167 56.512,121.317 56.607,121.502 56.621 C 121.869 56.649,122.333 57.040,122.333 57.321 C 122.333 57.420,122.414 57.500,122.513 57.500 C 122.612 57.500,122.918 57.726,123.193 58.001 C 123.469 58.277,123.775 58.453,123.873 58.392 C 123.979 58.327,124.003 58.360,123.933 58.474 C 123.861 58.589,123.922 58.667,124.083 58.667 C 124.232 58.667,124.312 58.733,124.261 58.815 C 124.165 58.971,124.992 59.601,125.208 59.537 C 125.277 59.517,125.333 59.581,125.333 59.681 C 125.333 59.878,127.106 61.667,127.301 61.667 C 127.367 61.667,127.562 61.854,127.734 62.083 C 127.906 62.313,128.186 62.500,128.357 62.500 C 128.527 62.500,128.667 62.612,128.667 62.750 C 128.667 62.887,128.779 63.000,128.917 63.000 C 129.054 63.000,129.167 63.075,129.167 63.167 C 129.167 63.258,129.276 63.333,129.409 63.333 C 129.542 63.333,129.839 63.521,130.068 63.750 C 130.297 63.979,130.638 64.167,130.826 64.167 C 131.018 64.167,131.167 64.276,131.167 64.417 C 131.167 64.554,131.279 64.667,131.417 64.667 C 131.554 64.667,131.667 64.742,131.667 64.833 C 131.667 64.925,131.723 64.991,131.792 64.980 C 132.196 64.916,132.500 65.032,132.500 65.250 C 132.500 65.387,132.646 65.500,132.823 65.500 C 133.001 65.500,133.193 65.575,133.250 65.667 C 133.307 65.758,133.536 65.833,133.760 65.833 C 134.010 65.833,134.167 65.929,134.167 66.083 C 134.167 66.237,134.323 66.333,134.573 66.333 C 134.797 66.333,135.027 66.408,135.083 66.500 C 135.140 66.592,135.398 66.667,135.656 66.667 C 135.914 66.667,136.213 66.772,136.319 66.900 C 136.502 67.119,136.884 67.208,138.656 67.441 C 139.063 67.495,139.491 67.634,139.608 67.750 C 139.751 67.894,140.448 67.971,141.780 67.989 C 142.858 68.004,143.780 68.074,143.829 68.144 C 143.950 68.319,145.876 68.331,146.089 68.159 C 146.184 68.082,146.884 68.004,147.645 67.986 C 148.632 67.962,149.054 67.888,149.116 67.726 C 149.172 67.579,149.483 67.500,150.008 67.500 C 150.451 67.500,150.860 67.425,150.917 67.333 C 150.973 67.242,151.288 67.167,151.616 67.167 C 151.949 67.167,152.295 67.057,152.398 66.920 C 152.500 66.785,152.827 66.656,153.125 66.635 C 153.423 66.613,153.667 66.537,153.667 66.465 C 153.667 66.392,153.812 66.333,153.990 66.333 C 154.168 66.333,154.362 66.255,154.421 66.160 C 154.480 66.064,154.822 65.868,155.181 65.725 C 155.540 65.581,155.833 65.359,155.833 65.232 C 155.833 65.097,156.004 65.000,156.240 65.000 C 156.464 65.000,156.693 64.925,156.750 64.833 C 156.807 64.742,156.999 64.667,157.177 64.667 C 157.354 64.667,157.500 64.560,157.500 64.429 C 157.500 64.298,157.796 64.060,158.159 63.900 C 158.521 63.740,158.779 63.547,158.732 63.471 C 158.685 63.395,158.736 63.333,158.845 63.333 C 158.955 63.333,159.292 63.071,159.594 62.750 C 159.897 62.429,160.224 62.167,160.322 62.167 C 160.420 62.167,160.500 62.054,160.500 61.917 C 160.500 61.778,160.648 61.667,160.833 61.667 C 161.019 61.667,161.167 61.556,161.167 61.417 C 161.167 61.279,161.284 61.167,161.427 61.167 C 161.569 61.167,161.644 61.097,161.591 61.013 C 161.539 60.928,161.910 60.446,162.415 59.940 C 162.935 59.420,163.333 58.873,163.333 58.678 C 163.333 58.483,163.442 58.333,163.583 58.333 C 163.721 58.333,163.833 58.253,163.833 58.155 C 163.833 57.941,164.251 57.500,164.453 57.500 C 164.531 57.500,164.608 57.332,164.624 57.127 C 164.639 56.923,164.730 56.729,164.826 56.697 C 164.922 56.665,165.000 56.533,165.000 56.403 C 165.000 56.273,165.097 56.167,165.215 56.167 C 165.333 56.167,165.442 55.999,165.457 55.794 C 165.473 55.589,165.564 55.395,165.659 55.364 C 165.755 55.332,165.833 55.124,165.833 54.903 C 165.833 54.681,165.930 54.500,166.048 54.500 C 166.170 54.500,166.280 54.268,166.303 53.958 C 166.326 53.660,166.417 53.392,166.505 53.361 C 166.594 53.331,166.667 53.122,166.667 52.898 C 166.667 52.673,166.779 52.446,166.917 52.394 C 167.098 52.324,167.166 52.041,167.164 51.357 C 167.161 50.031,167.025 49.871,166.228 50.249 C 165.468 50.610,165.022 50.999,165.363 51.003 C 165.530 51.004,165.525 51.042,165.341 51.158 C 165.208 51.242,165.039 51.274,164.965 51.228 C 164.891 51.183,164.786 51.263,164.731 51.406 C 164.676 51.549,164.522 51.667,164.389 51.667 C 164.256 51.667,164.193 51.742,164.250 51.833 C 164.307 51.925,164.236 52.000,164.093 52.000 C 163.950 52.000,163.833 52.112,163.833 52.250 C 163.833 52.391,163.684 52.500,163.492 52.500 C 163.304 52.500,162.977 52.688,162.765 52.917 C 162.552 53.146,162.214 53.333,162.013 53.333 C 161.811 53.333,161.693 53.408,161.750 53.500 C 161.840 53.646,161.497 53.747,161.120 53.685 C 161.049 53.673,160.947 53.777,160.894 53.915 C 160.841 54.053,160.633 54.167,160.432 54.167 C 160.231 54.167,159.995 54.235,159.908 54.318 C 159.774 54.446,158.963 54.629,158.208 54.702 C 158.094 54.713,158.000 54.785,158.000 54.861 C 158.000 55.123,153.585 55.025,153.061 54.751 C 152.798 54.614,152.382 54.502,152.135 54.501 C 151.888 54.500,151.640 54.425,151.583 54.333 C 151.527 54.242,151.335 54.167,151.157 54.167 C 150.979 54.167,150.833 54.092,150.833 54.000 C 150.833 53.908,150.693 53.833,150.520 53.833 C 150.348 53.833,150.114 53.721,150.000 53.583 C 149.886 53.446,149.660 53.333,149.497 53.333 C 149.335 53.333,149.157 53.216,149.102 53.073 C 149.047 52.929,148.935 52.854,148.853 52.904 C 148.771 52.955,148.612 52.885,148.498 52.748 C 148.385 52.612,148.189 52.500,148.063 52.500 C 147.937 52.500,147.833 52.420,147.833 52.321 C 147.833 52.054,147.394 51.667,147.090 51.667 C 146.943 51.667,146.780 51.554,146.727 51.417 C 146.674 51.279,146.559 51.167,146.470 51.167 C 146.254 51.167,145.833 50.734,145.833 50.512 C 145.833 50.414,145.753 50.333,145.655 50.333 C 145.558 50.333,145.230 50.071,144.927 49.750 C 144.625 49.429,144.288 49.167,144.179 49.167 C 144.070 49.167,144.025 49.094,144.080 49.005 C 144.135 48.916,143.990 48.795,143.757 48.737 C 143.524 48.678,143.333 48.564,143.333 48.482 C 143.333 48.400,143.221 48.333,143.083 48.333 C 142.946 48.333,142.833 48.253,142.833 48.155 C 142.833 47.938,142.415 47.500,142.207 47.500 C 142.124 47.500,141.956 47.313,141.833 47.083 C 141.711 46.854,141.508 46.667,141.383 46.667 C 141.258 46.667,141.113 46.554,141.060 46.417 C 141.008 46.279,140.840 46.167,140.688 46.167 C 140.537 46.167,140.282 45.993,140.123 45.781 C 139.964 45.569,139.571 45.293,139.250 45.167 C 138.929 45.041,138.667 44.852,138.667 44.747 C 138.667 44.642,138.460 44.460,138.208 44.342 C 137.956 44.224,137.637 44.060,137.500 43.976 C 137.362 43.892,137.119 43.780,136.958 43.726 C 136.798 43.672,136.667 43.562,136.667 43.481 C 136.667 43.400,136.477 43.333,136.245 43.333 C 136.013 43.333,135.780 43.221,135.727 43.083 C 135.674 42.946,135.493 42.833,135.325 42.833 C 135.157 42.833,134.973 42.758,134.917 42.667 C 134.860 42.575,134.639 42.500,134.425 42.500 C 134.211 42.500,133.992 42.387,133.940 42.250 C 133.884 42.105,133.635 42.000,133.348 42.000 C 133.076 42.000,132.807 41.925,132.750 41.833 C 132.693 41.742,132.389 41.667,132.073 41.667 C 131.675 41.667,131.500 41.590,131.500 41.417 C 131.500 41.228,131.296 41.167,130.667 41.167 C 130.208 41.167,129.833 41.092,129.833 41.000 C 129.833 40.905,129.316 40.831,128.625 40.828 C 127.868 40.825,127.304 40.738,127.116 40.595 C 126.653 40.244,122.462 40.228,122.114 40.576 " stroke="none" fill="#04d0fa" fill-rule="evenodd"></path><path id="path4" d="M7.878 19.248 C 7.795 19.395,7.569 19.528,7.374 19.543 C 7.180 19.557,6.984 19.711,6.938 19.885 C 6.893 20.058,6.776 20.151,6.678 20.090 C 6.386 19.910,6.454 23.342,6.750 23.733 C 6.882 23.907,6.949 24.114,6.901 24.192 C 6.852 24.271,6.929 24.381,7.073 24.436 C 7.216 24.491,7.333 24.673,7.333 24.841 C 7.333 25.009,7.404 25.190,7.489 25.243 C 7.722 25.387,8.167 26.339,8.167 26.692 C 8.167 26.862,8.240 27.000,8.330 27.000 C 8.420 27.000,8.541 27.188,8.598 27.417 C 8.656 27.646,8.770 27.833,8.851 27.833 C 8.933 27.833,9.000 27.938,9.000 28.066 C 9.000 28.193,9.112 28.341,9.250 28.394 C 9.394 28.449,9.500 28.698,9.500 28.981 C 9.500 29.251,9.579 29.499,9.676 29.531 C 9.772 29.563,9.876 29.738,9.906 29.920 C 9.936 30.101,10.045 30.231,10.147 30.208 C 10.250 30.185,10.333 30.276,10.333 30.409 C 10.333 30.826,10.710 31.500,10.943 31.500 C 11.068 31.500,11.167 31.677,11.167 31.903 C 11.167 32.124,11.236 32.331,11.321 32.361 C 11.405 32.392,11.500 32.642,11.530 32.917 C 11.561 33.192,11.650 33.431,11.729 33.449 C 11.910 33.489,12.333 34.297,12.333 34.602 C 12.333 34.729,12.446 34.833,12.583 34.833 C 12.737 34.833,12.833 34.990,12.833 35.240 C 12.833 35.464,12.908 35.693,13.000 35.750 C 13.092 35.807,13.167 36.001,13.167 36.182 C 13.167 36.363,13.279 36.554,13.417 36.606 C 13.554 36.659,13.667 36.886,13.667 37.111 C 13.667 37.336,13.737 37.476,13.822 37.424 C 13.907 37.371,14.001 37.535,14.030 37.789 C 14.060 38.049,14.174 38.232,14.292 38.208 C 14.406 38.185,14.500 38.318,14.500 38.502 C 14.500 38.687,14.570 38.968,14.655 39.127 C 14.739 39.286,14.851 39.553,14.903 39.719 C 14.955 39.885,15.073 39.974,15.165 39.917 C 15.258 39.860,15.333 39.957,15.333 40.131 C 15.333 40.539,15.810 41.500,16.012 41.500 C 16.097 41.500,16.167 41.651,16.167 41.836 C 16.167 42.226,16.492 42.858,16.792 43.050 C 16.906 43.123,17.000 43.325,17.000 43.498 C 17.000 43.672,17.075 43.860,17.167 43.917 C 17.258 43.973,17.333 44.157,17.333 44.325 C 17.333 44.493,17.446 44.674,17.583 44.727 C 17.721 44.780,17.833 44.926,17.833 45.052 C 17.833 45.287,18.313 46.350,18.487 46.500 C 18.683 46.670,19.000 47.337,19.000 47.581 C 19.000 47.720,19.112 47.833,19.250 47.833 C 19.406 47.833,19.500 47.991,19.500 48.250 C 19.500 48.479,19.575 48.667,19.667 48.667 C 19.758 48.667,19.833 48.854,19.833 49.083 C 19.833 49.343,19.928 49.500,20.083 49.500 C 20.239 49.500,20.333 49.657,20.333 49.917 C 20.333 50.146,20.408 50.333,20.500 50.333 C 20.592 50.333,20.667 50.486,20.667 50.672 C 20.667 50.858,20.779 51.054,20.917 51.106 C 21.054 51.159,21.167 51.382,21.167 51.601 C 21.167 51.821,21.242 52.000,21.333 52.000 C 21.425 52.000,21.500 52.152,21.500 52.339 C 21.500 52.525,21.612 52.720,21.750 52.773 C 21.887 52.826,22.000 53.048,22.000 53.268 C 22.000 53.487,22.075 53.667,22.167 53.667 C 22.258 53.667,22.333 53.854,22.333 54.083 C 22.333 54.343,22.428 54.500,22.583 54.500 C 22.737 54.500,22.833 54.656,22.833 54.903 C 22.833 55.124,22.912 55.332,23.007 55.364 C 23.103 55.395,23.194 55.589,23.210 55.794 C 23.225 55.999,23.334 56.167,23.452 56.167 C 23.570 56.167,23.667 56.312,23.667 56.490 C 23.667 56.668,23.742 56.860,23.833 56.917 C 23.925 56.973,24.000 57.168,24.000 57.348 C 24.000 57.529,24.112 57.720,24.250 57.773 C 24.387 57.826,24.500 58.048,24.500 58.268 C 24.500 58.487,24.575 58.667,24.667 58.667 C 24.758 58.667,24.833 58.819,24.833 59.005 C 24.833 59.191,24.946 59.387,25.083 59.440 C 25.221 59.492,25.333 59.715,25.333 59.934 C 25.333 60.154,25.408 60.333,25.500 60.333 C 25.592 60.333,25.667 60.446,25.667 60.583 C 25.667 60.721,25.779 60.833,25.917 60.833 C 26.072 60.833,26.167 60.991,26.167 61.250 C 26.167 61.479,26.242 61.667,26.333 61.667 C 26.425 61.667,26.500 61.854,26.500 62.083 C 26.500 62.313,26.579 62.500,26.677 62.500 C 26.774 62.500,26.807 62.575,26.750 62.667 C 26.693 62.758,26.726 62.833,26.823 62.833 C 26.921 62.833,27.000 62.940,27.000 63.069 C 27.000 63.199,27.078 63.332,27.174 63.364 C 27.270 63.395,27.361 63.589,27.376 63.794 C 27.392 63.999,27.501 64.167,27.619 64.167 C 27.737 64.167,27.833 64.354,27.833 64.583 C 27.833 64.813,27.908 65.000,28.000 65.000 C 28.092 65.000,28.167 65.152,28.167 65.339 C 28.167 65.525,28.279 65.720,28.417 65.773 C 28.554 65.826,28.667 66.048,28.667 66.268 C 28.667 66.487,28.740 66.667,28.830 66.667 C 28.920 66.667,29.041 66.854,29.098 67.083 C 29.156 67.313,29.270 67.500,29.351 67.500 C 29.433 67.500,29.500 67.612,29.500 67.750 C 29.500 67.887,29.613 68.000,29.750 68.000 C 29.906 68.000,30.000 68.157,30.000 68.417 C 30.000 68.646,30.075 68.833,30.167 68.833 C 30.258 68.833,30.333 69.021,30.333 69.250 C 30.333 69.509,30.428 69.667,30.583 69.667 C 30.739 69.667,30.833 69.824,30.833 70.083 C 30.833 70.313,30.908 70.500,31.000 70.500 C 31.092 70.500,31.167 70.652,31.167 70.839 C 31.167 71.025,31.279 71.220,31.417 71.273 C 31.554 71.326,31.667 71.511,31.667 71.684 C 31.667 71.858,31.724 72.000,31.794 72.000 C 31.921 72.000,32.222 72.494,32.429 73.042 C 32.489 73.202,32.605 73.333,32.686 73.333 C 32.767 73.333,32.833 73.486,32.833 73.672 C 32.833 73.858,32.946 74.054,33.083 74.106 C 33.221 74.159,33.333 74.307,33.333 74.434 C 33.333 74.562,33.408 74.667,33.500 74.667 C 33.592 74.667,33.667 74.854,33.667 75.083 C 33.667 75.343,33.761 75.500,33.917 75.500 C 34.057 75.500,34.167 75.649,34.167 75.841 C 34.167 76.028,34.354 76.383,34.583 76.631 C 34.812 76.878,35.000 77.174,35.000 77.290 C 35.000 77.405,35.075 77.500,35.167 77.500 C 35.258 77.500,35.333 77.642,35.333 77.816 C 35.333 77.989,35.446 78.174,35.583 78.227 C 35.721 78.280,35.833 78.438,35.833 78.578 C 35.833 78.718,35.891 78.833,35.962 78.833 C 36.033 78.833,36.232 79.096,36.405 79.417 C 36.578 79.737,36.774 80.000,36.840 80.000 C 36.907 80.000,37.002 80.158,37.053 80.350 C 37.103 80.543,37.209 80.660,37.288 80.612 C 37.366 80.563,37.442 80.669,37.455 80.847 C 37.482 81.204,37.877 81.667,38.155 81.667 C 38.253 81.667,38.333 81.805,38.333 81.974 C 38.333 82.144,38.596 82.552,38.917 82.883 C 39.237 83.213,39.500 83.562,39.500 83.658 C 39.500 83.755,39.565 83.833,39.643 83.833 C 39.722 83.833,40.069 84.100,40.414 84.425 C 40.759 84.750,41.259 85.060,41.524 85.113 C 41.790 85.166,42.047 85.275,42.097 85.355 C 42.222 85.558,44.167 85.538,44.167 85.333 C 44.167 85.242,44.306 85.167,44.477 85.167 C 44.647 85.167,44.927 84.979,45.100 84.750 C 45.272 84.521,45.507 84.333,45.623 84.333 C 45.739 84.333,45.833 84.221,45.833 84.083 C 45.833 83.946,45.908 83.833,46.000 83.833 C 46.092 83.833,46.167 83.681,46.167 83.495 C 46.167 83.309,46.279 83.113,46.417 83.060 C 46.554 83.008,46.667 82.860,46.667 82.732 C 46.667 82.604,46.742 82.500,46.833 82.500 C 46.925 82.500,47.000 82.313,47.000 82.083 C 47.000 81.824,47.094 81.667,47.250 81.667 C 47.391 81.667,47.500 81.518,47.500 81.326 C 47.500 81.139,47.688 80.783,47.917 80.536 C 48.146 80.289,48.333 79.955,48.333 79.793 C 48.333 79.632,48.408 79.500,48.500 79.500 C 48.592 79.500,48.667 79.355,48.667 79.179 C 48.667 79.002,48.779 78.745,48.917 78.607 C 49.054 78.470,49.167 78.248,49.167 78.114 C 49.167 77.774,49.635 76.907,49.789 76.962 C 49.859 76.987,49.940 76.743,49.968 76.420 C 49.997 76.097,50.082 75.833,50.159 75.833 C 50.235 75.833,50.344 75.646,50.402 75.417 C 50.459 75.188,50.580 75.000,50.670 75.000 C 50.760 75.000,50.833 74.845,50.833 74.655 C 50.833 74.465,50.947 74.196,51.085 74.058 C 51.223 73.920,51.293 73.737,51.241 73.652 C 51.188 73.567,51.263 73.453,51.406 73.398 C 51.549 73.343,51.667 73.118,51.667 72.899 C 51.667 72.679,51.740 72.500,51.830 72.500 C 51.920 72.500,52.041 72.312,52.098 72.083 C 52.156 71.854,52.270 71.667,52.351 71.667 C 52.433 71.667,52.500 71.479,52.500 71.250 C 52.500 71.021,52.561 70.833,52.635 70.833 C 52.818 70.833,53.333 69.637,53.333 69.212 C 53.333 69.023,53.446 68.826,53.583 68.773 C 53.721 68.720,53.833 68.525,53.833 68.339 C 53.833 68.152,53.908 68.000,54.000 68.000 C 54.092 68.000,54.167 67.821,54.167 67.601 C 54.167 67.382,54.279 67.159,54.417 67.106 C 54.554 67.054,54.667 66.863,54.667 66.682 C 54.667 66.501,54.742 66.307,54.833 66.250 C 54.925 66.193,55.000 65.996,55.000 65.812 C 55.000 65.627,55.112 65.364,55.250 65.226 C 55.387 65.089,55.500 64.794,55.500 64.571 C 55.500 64.349,55.575 64.167,55.667 64.167 C 55.758 64.167,55.833 63.979,55.833 63.750 C 55.833 63.491,55.928 63.333,56.083 63.333 C 56.239 63.333,56.333 63.176,56.333 62.917 C 56.333 62.688,56.408 62.500,56.500 62.500 C 56.592 62.500,56.667 62.321,56.667 62.101 C 56.667 61.882,56.779 61.659,56.917 61.606 C 57.054 61.554,57.167 61.358,57.167 61.172 C 57.167 60.986,57.242 60.833,57.333 60.833 C 57.425 60.833,57.500 60.568,57.500 60.245 C 57.500 59.875,57.593 59.620,57.750 59.560 C 57.887 59.508,58.000 59.285,58.000 59.066 C 58.000 58.846,58.075 58.667,58.167 58.667 C 58.258 58.667,58.333 58.479,58.333 58.250 C 58.333 57.991,58.428 57.833,58.583 57.833 C 58.739 57.833,58.833 57.676,58.833 57.417 C 58.833 57.188,58.908 57.000,59.000 57.000 C 59.092 57.000,59.167 56.810,59.167 56.578 C 59.167 56.346,59.279 56.113,59.417 56.060 C 59.554 56.008,59.667 55.822,59.667 55.649 C 59.667 55.475,59.742 55.333,59.833 55.333 C 59.925 55.333,60.000 55.071,60.000 54.750 C 60.000 54.343,60.075 54.167,60.250 54.167 C 60.406 54.167,60.500 54.009,60.500 53.750 C 60.500 53.521,60.575 53.333,60.667 53.333 C 60.758 53.333,60.833 53.155,60.833 52.937 C 60.833 52.719,60.946 52.447,61.083 52.333 C 61.221 52.219,61.333 52.023,61.333 51.896 C 61.333 51.770,61.408 51.667,61.500 51.667 C 61.592 51.667,61.667 51.367,61.667 51.000 C 61.667 50.519,61.736 50.333,61.917 50.333 C 62.072 50.333,62.167 50.176,62.167 49.917 C 62.167 49.688,62.242 49.500,62.333 49.500 C 62.425 49.500,62.500 49.313,62.500 49.083 C 62.500 48.824,62.594 48.667,62.750 48.667 C 62.904 48.667,63.000 48.510,63.000 48.260 C 63.000 48.036,63.075 47.807,63.167 47.750 C 63.258 47.693,63.333 47.426,63.333 47.157 C 63.333 46.832,63.418 46.667,63.583 46.667 C 63.739 46.667,63.833 46.509,63.833 46.250 C 63.833 46.021,63.908 45.833,64.000 45.833 C 64.092 45.833,64.167 45.646,64.167 45.417 C 64.167 45.157,64.261 45.000,64.417 45.000 C 64.572 45.000,64.667 44.843,64.667 44.583 C 64.667 44.354,64.742 44.167,64.833 44.167 C 64.925 44.167,65.000 43.987,65.000 43.768 C 65.000 43.548,65.112 43.326,65.250 43.273 C 65.387 43.220,65.500 43.029,65.500 42.848 C 65.500 42.668,65.575 42.473,65.667 42.417 C 65.758 42.360,65.833 42.056,65.833 41.740 C 65.833 41.341,65.910 41.167,66.083 41.167 C 66.239 41.167,66.333 41.009,66.333 40.750 C 66.333 40.521,66.408 40.333,66.500 40.333 C 66.592 40.333,66.667 40.146,66.667 39.917 C 66.667 39.657,66.761 39.500,66.917 39.500 C 67.072 39.500,67.167 39.343,67.167 39.083 C 67.167 38.854,67.242 38.667,67.333 38.667 C 67.425 38.667,67.500 38.479,67.500 38.250 C 67.500 37.991,67.594 37.833,67.750 37.833 C 67.904 37.833,68.000 37.677,68.000 37.427 C 68.000 37.203,68.075 36.973,68.167 36.917 C 68.258 36.860,68.333 36.591,68.333 36.318 C 68.333 36.032,68.439 35.782,68.583 35.727 C 68.721 35.674,68.833 35.452,68.833 35.232 C 68.833 35.013,68.908 34.833,69.000 34.833 C 69.092 34.833,69.167 34.646,69.167 34.417 C 69.167 34.157,69.261 34.000,69.417 34.000 C 69.571 34.000,69.667 33.844,69.667 33.593 C 69.667 33.369,69.742 33.140,69.833 33.083 C 69.925 33.027,70.000 32.795,70.000 32.568 C 70.000 32.342,70.112 32.113,70.250 32.060 C 70.387 32.008,70.500 31.791,70.500 31.579 C 70.500 31.368,70.578 31.168,70.674 31.136 C 70.770 31.105,70.861 30.913,70.876 30.710 C 70.891 30.508,71.000 30.305,71.118 30.260 C 71.237 30.214,71.333 30.025,71.333 29.839 C 71.333 29.652,71.400 29.500,71.482 29.500 C 71.564 29.500,71.678 29.312,71.735 29.083 C 71.793 28.854,71.913 28.667,72.003 28.667 C 72.093 28.667,72.167 28.525,72.167 28.353 C 72.167 28.180,72.467 27.439,72.833 26.707 C 73.200 25.974,73.500 25.253,73.500 25.104 C 73.500 24.955,73.575 24.833,73.667 24.833 C 73.758 24.833,73.833 24.646,73.833 24.417 C 73.833 24.188,73.930 24.000,74.048 24.000 C 74.166 24.000,74.275 23.838,74.290 23.640 C 74.304 23.442,74.400 23.228,74.502 23.165 C 74.991 22.863,74.635 19.500,74.115 19.500 C 74.039 19.500,73.864 19.387,73.726 19.250 C 73.365 18.889,69.802 18.889,69.440 19.250 C 69.280 19.410,68.869 19.500,68.295 19.500 C 67.803 19.500,67.329 19.571,67.242 19.657 C 67.155 19.744,66.693 19.832,66.215 19.853 C 65.679 19.877,65.314 19.977,65.262 20.113 C 65.203 20.265,64.836 20.333,64.079 20.333 C 63.389 20.333,63.019 20.395,63.083 20.500 C 63.148 20.605,62.738 20.667,61.968 20.668 C 61.214 20.668,60.568 20.763,60.273 20.918 C 60.010 21.055,59.398 21.167,58.912 21.167 C 58.425 21.167,58.003 21.238,57.972 21.324 C 57.942 21.411,57.373 21.497,56.708 21.516 C 56.044 21.535,55.500 21.619,55.500 21.702 C 55.500 21.785,55.425 21.807,55.333 21.750 C 55.242 21.693,55.167 21.726,55.167 21.823 C 55.167 21.921,55.042 22.000,54.890 22.000 C 54.307 22.000,53.578 23.108,52.751 25.250 C 52.503 25.892,52.226 26.558,52.135 26.730 C 52.045 26.902,51.716 27.801,51.405 28.726 C 50.633 31.022,50.503 30.933,54.280 30.689 C 58.175 30.438,57.959 30.421,58.516 31.018 C 58.917 31.446,59.000 31.679,59.000 32.371 C 59.000 33.264,58.853 33.579,56.449 37.833 C 56.268 38.154,55.744 39.129,55.286 40.000 C 54.828 40.871,54.164 42.050,53.810 42.621 C 53.456 43.192,53.167 43.710,53.167 43.772 C 53.167 43.834,52.979 44.131,52.750 44.431 C 52.521 44.732,52.333 45.067,52.333 45.176 C 52.333 45.355,51.670 46.644,50.665 48.417 C 50.457 48.783,49.951 49.721,49.541 50.500 C 49.131 51.279,48.740 51.992,48.673 52.083 C 48.605 52.175,48.248 52.813,47.878 53.500 C 47.508 54.188,46.735 55.575,46.161 56.583 C 44.513 59.476,44.500 59.498,43.571 61.195 C 43.085 62.081,42.496 63.111,42.261 63.483 C 42.026 63.855,41.833 64.196,41.833 64.239 C 41.833 64.432,40.174 67.174,39.532 68.042 C 38.910 68.883,38.753 69.000,38.254 69.000 C 37.099 69.000,36.984 68.159,37.336 62.333 C 37.428 60.821,37.579 58.233,37.672 56.583 C 38.055 49.802,38.242 47.669,38.829 43.356 C 39.043 41.779,38.944 41.658,38.106 42.466 C 36.753 43.769,32.764 46.492,32.200 46.497 C 30.449 46.512,30.325 45.864,29.591 32.833 C 29.026 22.798,28.928 22.000,28.263 22.000 C 28.049 22.000,27.781 21.887,27.667 21.750 C 27.529 21.584,27.156 21.500,26.563 21.500 C 26.070 21.500,25.667 21.425,25.667 21.333 C 25.667 21.237,25.144 21.167,24.431 21.167 C 23.751 21.167,23.169 21.094,23.139 21.005 C 23.064 20.788,22.480 20.694,21.115 20.679 C 20.491 20.672,20.020 20.602,20.069 20.523 C 20.118 20.445,19.541 20.361,18.787 20.338 C 18.033 20.315,17.327 20.292,17.218 20.287 C 17.108 20.282,17.033 20.197,17.051 20.097 C 17.072 19.980,16.509 19.900,15.452 19.869 C 14.555 19.843,13.859 19.760,13.905 19.686 C 13.951 19.611,13.454 19.535,12.801 19.516 C 12.148 19.496,11.419 19.383,11.182 19.262 C 10.510 18.922,8.066 18.912,7.878 19.248 " stroke="none" fill="#6b65fb" fill-rule="evenodd"></path></g></svg>